<svg width="121" height="24" viewBox="0 0 121 24" fill="none" xmlns="http://www.w3.org/2000/svg">
<path d="M19.6719 4.78125V19H17.7871V4.78125H19.6719ZM24.6328 10.6895V19H22.8262V8.43359H24.5352L24.6328 10.6895ZM24.2031 13.3164L23.4512 13.2871C23.4577 12.5645 23.5651 11.8971 23.7734 11.2852C23.9818 10.6667 24.2747 10.1296 24.6523 9.67383C25.0299 9.2181 25.4792 8.86654 26 8.61914C26.5273 8.36523 27.11 8.23828 27.748 8.23828C28.2689 8.23828 28.7376 8.3099 29.1543 8.45312C29.571 8.58984 29.9258 8.8112 30.2188 9.11719C30.5182 9.42318 30.7461 9.82031 30.9023 10.3086C31.0586 10.7904 31.1367 11.3796 31.1367 12.0762V19H29.3203V12.0566C29.3203 11.5033 29.2389 11.0605 29.0762 10.7285C28.9134 10.39 28.6758 10.1458 28.3633 9.99609C28.0508 9.83984 27.6667 9.76172 27.2109 9.76172C26.7617 9.76172 26.3516 9.85612 25.9805 10.0449C25.6159 10.2337 25.3001 10.4941 25.0332 10.8262C24.7728 11.1582 24.5677 11.5391 24.418 11.9688C24.2747 12.3919 24.2031 12.8411 24.2031 13.3164ZM38.3047 8.43359V9.82031H32.5918V8.43359H38.3047ZM34.5254 5.86523H36.332V16.3828C36.332 16.7409 36.3874 17.0111 36.498 17.1934C36.6087 17.3757 36.752 17.4961 36.9277 17.5547C37.1035 17.6133 37.2923 17.6426 37.4941 17.6426C37.6439 17.6426 37.8001 17.6296 37.9629 17.6035C38.1322 17.571 38.2591 17.5449 38.3438 17.5254L38.3535 19C38.2103 19.0456 38.0215 19.0879 37.7871 19.127C37.5592 19.1725 37.2826 19.1953 36.957 19.1953C36.5143 19.1953 36.1074 19.1074 35.7363 18.9316C35.3652 18.7559 35.069 18.4629 34.8477 18.0527C34.6328 17.6361 34.5254 17.0762 34.5254 16.373V5.86523ZM44.8086 19.1953C44.0729 19.1953 43.4056 19.0716 42.8066 18.8242C42.2142 18.5703 41.7031 18.2155 41.2734 17.7598C40.8503 17.304 40.5247 16.7637 40.2969 16.1387C40.069 15.5137 39.9551 14.8301 39.9551 14.0879V13.6777C39.9551 12.8184 40.082 12.0534 40.3359 11.3828C40.5898 10.7057 40.9349 10.1328 41.3711 9.66406C41.8073 9.19531 42.3021 8.84049 42.8555 8.59961C43.4089 8.35872 43.9818 8.23828 44.5742 8.23828C45.3294 8.23828 45.9805 8.36849 46.5273 8.62891C47.0807 8.88932 47.5332 9.25391 47.8848 9.72266C48.2363 10.1849 48.4967 10.7318 48.666 11.3633C48.8353 11.9883 48.9199 12.6719 48.9199 13.4141V14.2246H41.0293V12.75H47.1133V12.6133C47.0872 12.1445 46.9896 11.6888 46.8203 11.2461C46.6576 10.8034 46.3971 10.4388 46.0391 10.1523C45.681 9.86589 45.1927 9.72266 44.5742 9.72266C44.1641 9.72266 43.7865 9.81055 43.4414 9.98633C43.0964 10.1556 42.8001 10.4095 42.5527 10.748C42.3053 11.0866 42.1133 11.5 41.9766 11.9883C41.8398 12.4766 41.7715 13.0397 41.7715 13.6777V14.0879C41.7715 14.5892 41.8398 15.0612 41.9766 15.5039C42.1198 15.9401 42.3249 16.3242 42.5918 16.6562C42.8652 16.9883 43.194 17.2487 43.5781 17.4375C43.9688 17.6263 44.4115 17.7207 44.9062 17.7207C45.5443 17.7207 46.0846 17.5905 46.5273 17.3301C46.9701 17.0697 47.3574 16.7214 47.6895 16.2852L48.7832 17.1543C48.5553 17.4993 48.2656 17.8281 47.9141 18.1406C47.5625 18.4531 47.1296 18.707 46.6152 18.9023C46.1074 19.0977 45.5052 19.1953 44.8086 19.1953ZM52.8359 10.0938V19H51.0293V8.43359H52.7871L52.8359 10.0938ZM56.1367 8.375L56.127 10.0547C55.9772 10.0221 55.834 10.0026 55.6973 9.99609C55.5671 9.98307 55.4173 9.97656 55.248 9.97656C54.8314 9.97656 54.4635 10.0417 54.1445 10.1719C53.8255 10.3021 53.5553 10.4844 53.334 10.7188C53.1126 10.9531 52.9368 11.2331 52.8066 11.5586C52.6829 11.8776 52.6016 12.2292 52.5625 12.6133L52.0547 12.9062C52.0547 12.2682 52.1165 11.6693 52.2402 11.1094C52.3704 10.5495 52.569 10.0547 52.8359 9.625C53.1029 9.1888 53.4414 8.85026 53.8516 8.60938C54.2682 8.36198 54.763 8.23828 55.3359 8.23828C55.4661 8.23828 55.6159 8.25456 55.7852 8.28711C55.9544 8.31315 56.0716 8.34245 56.1367 8.375ZM59.6133 10.6895V19H57.8066V8.43359H59.5156L59.6133 10.6895ZM59.1836 13.3164L58.4316 13.2871C58.4382 12.5645 58.5456 11.8971 58.7539 11.2852C58.9622 10.6667 59.2552 10.1296 59.6328 9.67383C60.0104 9.2181 60.4596 8.86654 60.9805 8.61914C61.5078 8.36523 62.0905 8.23828 62.7285 8.23828C63.2493 8.23828 63.7181 8.3099 64.1348 8.45312C64.5514 8.58984 64.9062 8.8112 65.1992 9.11719C65.4987 9.42318 65.7266 9.82031 65.8828 10.3086C66.0391 10.7904 66.1172 11.3796 66.1172 12.0762V19H64.3008V12.0566C64.3008 11.5033 64.2194 11.0605 64.0566 10.7285C63.8939 10.39 63.6562 10.1458 63.3438 9.99609C63.0312 9.83984 62.6471 9.76172 62.1914 9.76172C61.7422 9.76172 61.332 9.85612 60.9609 10.0449C60.5964 10.2337 60.2806 10.4941 60.0137 10.8262C59.7533 11.1582 59.5482 11.5391 59.3984 11.9688C59.2552 12.3919 59.1836 12.8411 59.1836 13.3164ZM74.3789 13.4238H70.5801V11.8906H74.3789C75.1146 11.8906 75.7103 11.7734 76.166 11.5391C76.6217 11.3047 76.9538 10.9792 77.1621 10.5625C77.377 10.1458 77.4844 9.67057 77.4844 9.13672C77.4844 8.64844 77.377 8.18945 77.1621 7.75977C76.9538 7.33008 76.6217 6.98503 76.166 6.72461C75.7103 6.45768 75.1146 6.32422 74.3789 6.32422H71.0195V19H69.1348V4.78125H74.3789C75.4531 4.78125 76.3613 4.9668 77.1035 5.33789C77.8457 5.70898 78.4089 6.22331 78.793 6.88086C79.1771 7.5319 79.3691 8.27734 79.3691 9.11719C79.3691 10.0286 79.1771 10.8066 78.793 11.4512C78.4089 12.0957 77.8457 12.5872 77.1035 12.9258C76.3613 13.2578 75.4531 13.4238 74.3789 13.4238ZM80.8633 13.834V13.6094C80.8633 12.8477 80.974 12.1413 81.1953 11.4902C81.4167 10.8327 81.7357 10.263 82.1523 9.78125C82.569 9.29297 83.0736 8.91536 83.666 8.64844C84.2585 8.375 84.9225 8.23828 85.6582 8.23828C86.4004 8.23828 87.0677 8.375 87.6602 8.64844C88.2591 8.91536 88.7669 9.29297 89.1836 9.78125C89.6068 10.263 89.929 10.8327 90.1504 11.4902C90.3717 12.1413 90.4824 12.8477 90.4824 13.6094V13.834C90.4824 14.5957 90.3717 15.3021 90.1504 15.9531C89.929 16.6042 89.6068 17.1738 89.1836 17.6621C88.7669 18.1439 88.2624 18.5215 87.6699 18.7949C87.084 19.0618 86.4199 19.1953 85.6777 19.1953C84.9355 19.1953 84.2682 19.0618 83.6758 18.7949C83.0833 18.5215 82.5755 18.1439 82.1523 17.6621C81.7357 17.1738 81.4167 16.6042 81.1953 15.9531C80.974 15.3021 80.8633 14.5957 80.8633 13.834ZM82.6699 13.6094V13.834C82.6699 14.3613 82.7318 14.8594 82.8555 15.3281C82.9792 15.7904 83.1647 16.2005 83.4121 16.5586C83.666 16.9167 83.9818 17.1999 84.3594 17.4082C84.737 17.61 85.1764 17.7109 85.6777 17.7109C86.1725 17.7109 86.6055 17.61 86.9766 17.4082C87.3542 17.1999 87.6667 16.9167 87.9141 16.5586C88.1615 16.2005 88.347 15.7904 88.4707 15.3281C88.6009 14.8594 88.666 14.3613 88.666 13.834V13.6094C88.666 13.0885 88.6009 12.597 88.4707 12.1348C88.347 11.666 88.1582 11.2526 87.9043 10.8945C87.6569 10.5299 87.3444 10.2435 86.9668 10.0352C86.5957 9.82682 86.1595 9.72266 85.6582 9.72266C85.1634 9.72266 84.7272 9.82682 84.3496 10.0352C83.9785 10.2435 83.666 10.5299 83.4121 10.8945C83.1647 11.2526 82.9792 11.666 82.8555 12.1348C82.7318 12.597 82.6699 13.0885 82.6699 13.6094ZM94.5547 10.0938V19H92.748V8.43359H94.5059L94.5547 10.0938ZM97.8555 8.375L97.8457 10.0547C97.696 10.0221 97.5527 10.0026 97.416 9.99609C97.2858 9.98307 97.1361 9.97656 96.9668 9.97656C96.5501 9.97656 96.1823 10.0417 95.8633 10.1719C95.5443 10.3021 95.2741 10.4844 95.0527 10.7188C94.8314 10.9531 94.6556 11.2331 94.5254 11.5586C94.4017 11.8776 94.3203 12.2292 94.2812 12.6133L93.7734 12.9062C93.7734 12.2682 93.8353 11.6693 93.959 11.1094C94.0892 10.5495 94.2878 10.0547 94.5547 9.625C94.8216 9.1888 95.1602 8.85026 95.5703 8.60938C95.987 8.36198 96.4818 8.23828 97.0547 8.23828C97.1849 8.23828 97.3346 8.25456 97.5039 8.28711C97.6732 8.31315 97.7904 8.34245 97.8555 8.375ZM104.438 8.43359V9.82031H98.7246V8.43359H104.438ZM100.658 5.86523H102.465V16.3828C102.465 16.7409 102.52 17.0111 102.631 17.1934C102.742 17.3757 102.885 17.4961 103.061 17.5547C103.236 17.6133 103.425 17.6426 103.627 17.6426C103.777 17.6426 103.933 17.6296 104.096 17.6035C104.265 17.571 104.392 17.5449 104.477 17.5254L104.486 19C104.343 19.0456 104.154 19.0879 103.92 19.127C103.692 19.1725 103.415 19.1953 103.09 19.1953C102.647 19.1953 102.24 19.1074 101.869 18.9316C101.498 18.7559 101.202 18.4629 100.98 18.0527C100.766 17.6361 100.658 17.0762 100.658 16.373V5.86523ZM112.787 17.1934V11.7539C112.787 11.3372 112.702 10.9759 112.533 10.6699C112.37 10.3574 112.123 10.1165 111.791 9.94727C111.459 9.77799 111.049 9.69336 110.561 9.69336C110.105 9.69336 109.704 9.77148 109.359 9.92773C109.021 10.084 108.754 10.2891 108.559 10.543C108.37 10.7969 108.275 11.0703 108.275 11.3633H106.469C106.469 10.9857 106.566 10.6113 106.762 10.2402C106.957 9.86914 107.237 9.53385 107.602 9.23438C107.973 8.92839 108.415 8.6875 108.93 8.51172C109.451 8.32943 110.03 8.23828 110.668 8.23828C111.436 8.23828 112.113 8.36849 112.699 8.62891C113.292 8.88932 113.754 9.2832 114.086 9.81055C114.424 10.3314 114.594 10.9857 114.594 11.7734V16.6953C114.594 17.0469 114.623 17.4212 114.682 17.8184C114.747 18.2155 114.841 18.5573 114.965 18.8438V19H113.08C112.989 18.7917 112.917 18.515 112.865 18.1699C112.813 17.8184 112.787 17.4928 112.787 17.1934ZM113.1 12.5938L113.119 13.8633H111.293C110.779 13.8633 110.32 13.9056 109.916 13.9902C109.512 14.0684 109.174 14.1888 108.9 14.3516C108.627 14.5143 108.419 14.7194 108.275 14.9668C108.132 15.2077 108.061 15.4909 108.061 15.8164C108.061 16.1484 108.135 16.4512 108.285 16.7246C108.435 16.998 108.66 17.2161 108.959 17.3789C109.265 17.5352 109.639 17.6133 110.082 17.6133C110.635 17.6133 111.124 17.4961 111.547 17.2617C111.97 17.0273 112.305 16.7409 112.553 16.4023C112.807 16.0638 112.943 15.735 112.963 15.416L113.734 16.2852C113.689 16.5586 113.565 16.8613 113.363 17.1934C113.161 17.5254 112.891 17.8444 112.553 18.1504C112.221 18.4499 111.824 18.7005 111.361 18.9023C110.906 19.0977 110.391 19.1953 109.818 19.1953C109.102 19.1953 108.474 19.0553 107.934 18.7754C107.4 18.4954 106.983 18.1211 106.684 17.6523C106.391 17.1771 106.244 16.6465 106.244 16.0605C106.244 15.4941 106.355 14.9961 106.576 14.5664C106.798 14.1302 107.117 13.7689 107.533 13.4824C107.95 13.1895 108.451 12.9681 109.037 12.8184C109.623 12.6686 110.277 12.5938 111 12.5938H113.1ZM119.398 4V19H117.582V4H119.398Z" fill="url(#paint0_linear_23_5)"/>
<path d="M4.42 21.3C3.92667 21.3 3.42 21.1467 2.9 20.84C2.39333 20.5333 1.87333 20.0333 1.34 19.34C0.926667 18.7933 0.626667 18.1667 0.44 17.46C0.266667 16.7533 0.18 16.0533 0.18 15.36C0.18 15.0267 0.2 14.7 0.24 14.38C0.293333 14.02 0.393333 13.6133 0.54 13.16C0.686667 12.6933 0.84 12.3133 1 12.02C1.05333 11.9133 1.12667 11.8067 1.22 11.7C1.32667 11.5933 1.39333 11.54 1.42 11.54C1.43333 11.54 1.44 11.5533 1.44 11.58C1.44 11.6333 1.37333 11.7933 1.24 12.06C1.04 12.46 0.893333 12.8867 0.8 13.34C0.706667 13.78 0.66 14.2333 0.66 14.7C0.66 15.5533 0.793333 16.3933 1.06 17.22C1.34 18.06 1.70667 18.78 2.16 19.38C2.58667 19.9533 3 20.3667 3.4 20.62C3.81333 20.8733 4.2 21 4.56 21C5.09333 21 5.56667 20.7933 5.98 20.38C6.40667 19.9667 6.76 19.46 7.04 18.86C7.24 18.4467 7.40667 17.9 7.54 17.22C7.67333 16.5533 7.77333 15.8067 7.84 14.98C7.92 14.14 7.96 13.2733 7.96 12.38C7.96 11.4733 7.92 10.58 7.84 9.7C7.76 8.82 7.62667 7.99333 7.44 7.22C7.26667 6.44667 7.04667 5.78 6.78 5.22C6.51333 4.66 6.18667 4.26 5.8 4.02C5.69333 3.95333 5.59333 3.92 5.5 3.92C5.39333 3.92 5.28667 3.95333 5.18 4.02C5.08667 4.08667 5 4.17333 4.92 4.28C4.74667 4.52 4.62 4.85333 4.54 5.28C4.46 5.69333 4.42 6.14 4.42 6.62C4.42 7.18 4.46667 7.74667 4.56 8.32C4.65333 8.88 4.78 9.38 4.94 9.82C5.11333 10.2467 5.30667 10.5467 5.52 10.72C5.64 10.8267 5.75333 10.88 5.86 10.88C5.95333 10.88 6.02667 10.86 6.08 10.82C6.13333 10.7667 6.18667 10.74 6.24 10.74C6.33333 10.74 6.34667 10.78 6.28 10.86C6.21333 10.9267 6.11333 10.9933 5.98 11.06C5.84667 11.1267 5.7 11.1533 5.54 11.14C5.18 11.1 4.88 10.9 4.64 10.54C4.4 10.18 4.22 9.72667 4.1 9.18C3.98 8.62 3.92 8.04667 3.92 7.46C3.92 6.83333 3.98 6.23333 4.1 5.66C4.23333 5.08667 4.42667 4.62 4.68 4.26C4.94667 3.9 5.26667 3.72 5.64 3.72C5.82667 3.72 6.00667 3.76 6.18 3.84C6.68667 4.05333 7.1 4.46667 7.42 5.08C7.75333 5.68 8.00667 6.4 8.18 7.24C8.36667 8.06667 8.49333 8.93333 8.56 9.84C8.64 10.7467 8.68 11.62 8.68 12.46C8.68 13.14 8.66 13.76 8.62 14.32C8.59333 14.88 8.56 15.3333 8.52 15.68C8.44 16.4133 8.28 17.1133 8.04 17.78C7.8 18.46 7.5 19.06 7.14 19.58C6.78 20.1133 6.36667 20.5333 5.9 20.84C5.43333 21.1467 4.94 21.3 4.42 21.3ZM9.73969 23.52C9.53969 23.52 9.37969 23.3867 9.25969 23.12C9.13969 22.8667 9.05302 22.56 8.99969 22.2C8.93302 21.84 8.89969 21.5067 8.89969 21.2C8.89969 21.0533 8.90635 20.84 8.91969 20.56C8.93302 20.28 8.95302 19.98 8.97969 19.66C9.00635 19.34 9.03302 19.04 9.05969 18.76C9.08635 18.48 9.10635 18.2667 9.11969 18.12C9.23969 17.2133 9.41969 16.34 9.65969 15.5C9.89969 14.6467 10.1597 13.8133 10.4397 13C10.453 12.9733 10.4664 12.9333 10.4797 12.88C10.5064 12.8267 10.5264 12.8 10.5397 12.8V12.74C10.4064 12.7933 10.233 12.92 10.0197 13.12C9.81969 13.32 9.67302 13.4733 9.57969 13.58C9.48635 13.6733 9.39969 13.7733 9.31969 13.88C9.23969 13.9733 9.14635 14.02 9.03969 14.02C8.93302 14.02 8.87969 13.96 8.87969 13.84C8.87969 13.6933 8.95969 13.5467 9.11969 13.4C9.26635 13.24 9.43302 13.0933 9.61969 12.96C9.80635 12.8133 10.0064 12.68 10.2197 12.56C10.4464 12.44 10.6064 12.3533 10.6997 12.3C10.7397 12.2733 10.7664 12.24 10.7797 12.2C10.8064 12.16 10.8264 12.12 10.8397 12.08C10.933 11.9333 11.0264 11.7933 11.1197 11.66C11.2264 11.5267 11.3664 11.4333 11.5397 11.38C11.6597 11.3933 11.793 11.42 11.9397 11.46C12.0864 11.5 12.173 11.5933 12.1997 11.74C12.1997 11.7933 12.213 11.82 12.2397 11.82V11.84C12.3064 11.84 12.3864 11.8333 12.4797 11.82C12.5864 11.7933 12.7064 11.78 12.8397 11.78C13.3597 11.78 13.7797 11.9133 14.0997 12.18C14.4197 12.4467 14.5797 12.8 14.5797 13.24C14.5797 13.6533 14.4597 14.1 14.2197 14.58C13.9797 15.0467 13.7197 15.4267 13.4397 15.72C12.9997 16.16 12.533 16.5467 12.0397 16.88C11.5597 17.2 11.1464 17.36 10.7997 17.36C10.5864 17.36 10.4397 17.3 10.3597 17.18C10.293 17.0733 10.2597 16.94 10.2597 16.78C10.2597 16.5533 10.3597 16.3267 10.5597 16.1C10.7597 15.8733 10.9597 15.68 11.1597 15.52C11.3864 15.3333 11.6197 15.16 11.8597 15C12.113 14.84 12.3264 14.7067 12.4997 14.6C12.593 14.5333 12.6797 14.4733 12.7597 14.42C12.853 14.3667 12.933 14.34 12.9997 14.34C13.0397 14.34 13.0597 14.36 13.0597 14.4C13.0597 14.4267 12.9797 14.4933 12.8197 14.6C12.673 14.7067 12.5464 14.8 12.4397 14.88C12.3597 14.9467 12.2197 15.0667 12.0197 15.24C11.8197 15.4 11.6064 15.5867 11.3797 15.8C11.1664 16 10.9797 16.2067 10.8197 16.42C10.6597 16.6333 10.5797 16.82 10.5797 16.98C10.793 16.98 11.0264 16.8933 11.2797 16.72C11.5464 16.5333 11.8064 16.32 12.0597 16.08C12.3264 15.84 12.553 15.64 12.7397 15.48C12.913 15.32 13.1197 15.1 13.3597 14.82C13.5997 14.54 13.813 14.24 13.9997 13.92C14.1864 13.6 14.2797 13.3067 14.2797 13.04C14.2797 12.6933 14.1464 12.44 13.8797 12.28C13.6264 12.1067 13.3197 12.02 12.9597 12.02C12.8397 12.02 12.6864 12.0333 12.4997 12.06C12.313 12.0867 12.1997 12.1133 12.1597 12.14C11.8664 12.5933 11.5864 13.0533 11.3197 13.52C11.053 13.9867 10.8064 14.4667 10.5797 14.96C10.2064 15.76 9.90635 16.5733 9.67969 17.4C9.46635 18.2267 9.32635 19.12 9.25969 20.08C9.24635 20.3067 9.22635 20.5467 9.19969 20.8C9.18635 21.0533 9.18635 21.3067 9.19969 21.56C9.21302 21.6933 9.23969 21.9067 9.27969 22.2C9.31969 22.4933 9.38635 22.76 9.47969 23C9.57302 23.24 9.69969 23.36 9.85969 23.36C9.87302 23.36 9.89969 23.36 9.93969 23.36C9.97969 23.36 9.99969 23.3667 9.99969 23.38V23.44C9.90635 23.4933 9.81969 23.52 9.73969 23.52Z" fill="url(#paint1_radial_23_5)"/>
<defs>
<linearGradient id="paint0_linear_23_5" x1="16" y1="12.5" x2="121" y2="12.5" gradientUnits="userSpaceOnUse">
<stop stop-color="#0000F6"/>
<stop offset="1" stop-color="#00D4F6"/>
</linearGradient>
<radialGradient id="paint1_radial_23_5" cx="0" cy="0" r="1" gradientUnits="userSpaceOnUse" gradientTransform="translate(4.48352 6.17791) rotate(68.7462) scale(9.94317 7.7565)">
<stop stop-color="#0000F6"/>
<stop offset="1" stop-color="#00D4F6"/>
</radialGradient>
</defs>
</svg>
