<svg width="200" height="50" viewBox="0 0 170 39" fill="none" xmlns="http://www.w3.org/2000/svg">
<path d="M43.5227 12.4545V27H41.7614V12.4545H43.5227ZM48.5032 20.4375V27H46.8271V16.0909H48.4464V17.7955H48.5884C48.8441 17.2415 49.2324 16.7964 49.7532 16.4602C50.274 16.1193 50.9464 15.9489 51.7702 15.9489C52.5089 15.9489 53.1552 16.1004 53.7092 16.4034C54.2631 16.7017 54.694 17.1562 55.0018 17.767C55.3095 18.3731 55.4634 19.1402 55.4634 20.0682V27H53.7873V20.1818C53.7873 19.3248 53.5647 18.6572 53.1197 18.179C52.6746 17.696 52.0638 17.4545 51.2873 17.4545C50.7522 17.4545 50.274 17.5705 49.8526 17.8026C49.436 18.0346 49.1069 18.3731 48.8654 18.8182C48.6239 19.2633 48.5032 19.803 48.5032 20.4375ZM63.2706 16.0909V17.5114H57.6172V16.0909H63.2706ZM59.2649 13.4773H60.9411V23.875C60.9411 24.3485 61.0097 24.7036 61.147 24.9403C61.2891 25.1723 61.469 25.3286 61.6868 25.4091C61.9093 25.4848 62.1437 25.5227 62.3899 25.5227C62.5746 25.5227 62.7261 25.5133 62.8445 25.4943C62.9628 25.4706 63.0575 25.4517 63.1286 25.4375L63.4695 26.9432C63.3558 26.9858 63.1972 27.0284 62.9936 27.071C62.79 27.1184 62.532 27.142 62.2195 27.142C61.746 27.142 61.282 27.0402 60.8274 26.8366C60.3776 26.633 60.0036 26.3229 59.7053 25.9062C59.4117 25.4896 59.2649 24.964 59.2649 24.3295V13.4773ZM70.2486 27.2273C69.1974 27.2273 68.2907 26.9953 67.5284 26.5312C66.7708 26.0625 66.1861 25.4091 65.7741 24.571C65.367 23.7282 65.1634 22.7481 65.1634 21.6307C65.1634 20.5133 65.367 19.5284 65.7741 18.6761C66.1861 17.8191 66.759 17.1515 67.4929 16.6733C68.2315 16.1903 69.0933 15.9489 70.0781 15.9489C70.6463 15.9489 71.2074 16.0436 71.7614 16.233C72.3153 16.4223 72.8196 16.7301 73.2741 17.1562C73.7287 17.5777 74.0909 18.1364 74.3608 18.8324C74.6307 19.5284 74.7656 20.3854 74.7656 21.4034V22.1136H66.3565V20.6648H73.0611C73.0611 20.0492 72.938 19.5 72.6918 19.017C72.4503 18.5341 72.1046 18.1529 71.6548 17.8736C71.2098 17.5942 70.6842 17.4545 70.0781 17.4545C69.4105 17.4545 68.8329 17.6203 68.3452 17.9517C67.8622 18.2784 67.4905 18.7045 67.2301 19.2301C66.9697 19.7557 66.8395 20.3191 66.8395 20.9205V21.8864C66.8395 22.7102 66.9815 23.4086 67.2656 23.9815C67.5545 24.5497 67.9545 24.983 68.4659 25.2812C68.9773 25.5748 69.5715 25.7216 70.2486 25.7216C70.6889 25.7216 71.0866 25.66 71.4418 25.5369C71.8016 25.4091 72.1117 25.2197 72.3722 24.9688C72.6326 24.7131 72.8338 24.3958 72.9759 24.017L74.5952 24.4716C74.4247 25.0208 74.1383 25.5038 73.7358 25.9205C73.3333 26.3324 72.8362 26.6544 72.2443 26.8864C71.6525 27.1136 70.9872 27.2273 70.2486 27.2273ZM77.3153 27V16.0909H78.9347V17.7386H79.0483C79.2472 17.1989 79.607 16.7609 80.1278 16.4247C80.6487 16.0885 81.2358 15.9205 81.8892 15.9205C82.0123 15.9205 82.1662 15.9228 82.3509 15.9276C82.5355 15.9323 82.6752 15.9394 82.7699 15.9489V17.6534C82.7131 17.6392 82.5829 17.6179 82.3793 17.5895C82.1804 17.5563 81.9697 17.5398 81.7472 17.5398C81.2169 17.5398 80.7434 17.651 80.3267 17.8736C79.9148 18.0914 79.5881 18.3944 79.3466 18.7827C79.1098 19.1662 78.9915 19.6042 78.9915 20.0966V27H77.3153ZM86.4329 20.4375V27H84.7567V16.0909H86.3761V17.7955H86.5181C86.7738 17.2415 87.1621 16.7964 87.6829 16.4602C88.2037 16.1193 88.8761 15.9489 89.6999 15.9489C90.4386 15.9489 91.0849 16.1004 91.6388 16.4034C92.1928 16.7017 92.6237 17.1562 92.9315 17.767C93.2392 18.3731 93.3931 19.1402 93.3931 20.0682V27H91.717V20.1818C91.717 19.3248 91.4944 18.6572 91.0494 18.179C90.6043 17.696 89.9935 17.4545 89.217 17.4545C88.6819 17.4545 88.2037 17.5705 87.7823 17.8026C87.3656 18.0346 87.0366 18.3731 86.7951 18.8182C86.5536 19.2633 86.4329 19.803 86.4329 20.4375ZM96.6832 27V12.4545H101.598C102.739 12.4545 103.672 12.6605 104.396 13.0724C105.125 13.4796 105.665 14.0312 106.016 14.7273C106.366 15.4233 106.541 16.1998 106.541 17.0568C106.541 17.9138 106.366 18.6927 106.016 19.3935C105.67 20.0942 105.135 20.6529 104.411 21.0696C103.686 21.4815 102.758 21.6875 101.626 21.6875H98.1037V20.125H101.57C102.351 20.125 102.978 19.9901 103.452 19.7202C103.925 19.4503 104.268 19.0857 104.482 18.6264C104.699 18.1624 104.808 17.6392 104.808 17.0568C104.808 16.4744 104.699 15.9536 104.482 15.4943C104.268 15.035 103.923 14.6752 103.445 14.4148C102.966 14.1496 102.332 14.017 101.541 14.017H98.4446V27H96.6832ZM113.466 27.2273C112.481 27.2273 111.617 26.9929 110.874 26.5241C110.135 26.0554 109.557 25.3996 109.141 24.5568C108.729 23.714 108.523 22.7292 108.523 21.6023C108.523 20.4659 108.729 19.474 109.141 18.6264C109.557 17.7789 110.135 17.1207 110.874 16.652C111.617 16.1832 112.481 15.9489 113.466 15.9489C114.451 15.9489 115.313 16.1832 116.051 16.652C116.795 17.1207 117.372 17.7789 117.784 18.6264C118.201 19.474 118.409 20.4659 118.409 21.6023C118.409 22.7292 118.201 23.714 117.784 24.5568C117.372 25.3996 116.795 26.0554 116.051 26.5241C115.313 26.9929 114.451 27.2273 113.466 27.2273ZM113.466 25.7216C114.214 25.7216 114.83 25.5298 115.312 25.1463C115.795 24.7628 116.153 24.2585 116.385 23.6335C116.617 23.0085 116.733 22.3314 116.733 21.6023C116.733 20.8731 116.617 20.1937 116.385 19.5639C116.153 18.9342 115.795 18.4252 115.312 18.0369C114.83 17.6487 114.214 17.4545 113.466 17.4545C112.718 17.4545 112.102 17.6487 111.619 18.0369C111.136 18.4252 110.779 18.9342 110.547 19.5639C110.315 20.1937 110.199 20.8731 110.199 21.6023C110.199 22.3314 110.315 23.0085 110.547 23.6335C110.779 24.2585 111.136 24.7628 111.619 25.1463C112.102 25.5298 112.718 25.7216 113.466 25.7216ZM120.968 27V16.0909H122.587V17.7386H122.701C122.9 17.1989 123.259 16.7609 123.78 16.4247C124.301 16.0885 124.888 15.9205 125.542 15.9205C125.665 15.9205 125.819 15.9228 126.003 15.9276C126.188 15.9323 126.328 15.9394 126.422 15.9489V17.6534C126.365 17.6392 126.235 17.6179 126.032 17.5895C125.833 17.5563 125.622 17.5398 125.4 17.5398C124.869 17.5398 124.396 17.651 123.979 17.8736C123.567 18.0914 123.24 18.3944 122.999 18.7827C122.762 19.1662 122.644 19.6042 122.644 20.0966V27H120.968ZM133.837 16.0909V17.5114H128.184V16.0909H133.837ZM129.831 13.4773H131.507V23.875C131.507 24.3485 131.576 24.7036 131.713 24.9403C131.855 25.1723 132.035 25.3286 132.253 25.4091C132.476 25.4848 132.71 25.5227 132.956 25.5227C133.141 25.5227 133.292 25.5133 133.411 25.4943C133.529 25.4706 133.624 25.4517 133.695 25.4375L134.036 26.9432C133.922 26.9858 133.764 27.0284 133.56 27.071C133.356 27.1184 133.098 27.142 132.786 27.142C132.312 27.142 131.848 27.0402 131.394 26.8366C130.944 26.633 130.57 26.3229 130.272 25.9062C129.978 25.4896 129.831 24.964 129.831 24.3295V13.4773ZM139.569 27.2557C138.877 27.2557 138.25 27.1255 137.686 26.8651C137.123 26.5999 136.676 26.2188 136.344 25.7216C136.013 25.2197 135.847 24.6136 135.847 23.9034C135.847 23.2784 135.97 22.7718 136.216 22.3835C136.462 21.9905 136.792 21.6828 137.203 21.4602C137.615 21.2377 138.07 21.072 138.567 20.9631C139.069 20.8494 139.573 20.7595 140.08 20.6932C140.743 20.608 141.28 20.544 141.692 20.5014C142.109 20.4541 142.412 20.3759 142.601 20.267C142.795 20.1581 142.892 19.9687 142.892 19.6989V19.642C142.892 18.9413 142.701 18.3968 142.317 18.0085C141.938 17.6203 141.363 17.4261 140.591 17.4261C139.791 17.4261 139.164 17.6013 138.709 17.9517C138.255 18.3021 137.935 18.6761 137.75 19.0739L136.159 18.5057C136.444 17.8428 136.822 17.3267 137.296 16.9574C137.774 16.5833 138.295 16.3229 138.858 16.1761C139.426 16.0246 139.985 15.9489 140.534 15.9489C140.885 15.9489 141.287 15.9915 141.742 16.0767C142.201 16.1572 142.644 16.3253 143.07 16.581C143.501 16.8366 143.858 17.2225 144.142 17.7386C144.426 18.2547 144.569 18.946 144.569 19.8125V27H142.892V25.5227H142.807C142.694 25.7595 142.504 26.0128 142.239 26.2827C141.974 26.5526 141.621 26.7822 141.181 26.9716C140.74 27.161 140.203 27.2557 139.569 27.2557ZM139.824 25.75C140.487 25.75 141.046 25.6198 141.5 25.3594C141.96 25.099 142.305 24.7628 142.537 24.3509C142.774 23.9389 142.892 23.5057 142.892 23.0511V21.517C142.821 21.6023 142.665 21.6804 142.424 21.7514C142.187 21.8177 141.912 21.8769 141.6 21.929C141.292 21.9763 140.991 22.0189 140.698 22.0568C140.409 22.09 140.175 22.1184 139.995 22.142C139.559 22.1989 139.152 22.2912 138.773 22.419C138.399 22.5421 138.096 22.7292 137.864 22.9801C137.637 23.2263 137.523 23.5625 137.523 23.9886C137.523 24.571 137.739 25.0114 138.169 25.3097C138.605 25.6032 139.157 25.75 139.824 25.75ZM149.304 12.4545V27H147.628V12.4545H149.304Z" fill="url(#paint0_linear_6_2)"/>
<path d="M20.42 28.3C19.9267 28.3 19.42 28.1467 18.9 27.84C18.3933 27.5333 17.8733 27.0333 17.34 26.34C16.9267 25.7933 16.6267 25.1667 16.44 24.46C16.2667 23.7533 16.18 23.0533 16.18 22.36C16.18 22.0267 16.2 21.7 16.24 21.38C16.2933 21.02 16.3933 20.6133 16.54 20.16C16.6867 19.6933 16.84 19.3133 17 19.02C17.0533 18.9133 17.1267 18.8067 17.22 18.7C17.3267 18.5933 17.3933 18.54 17.42 18.54C17.4333 18.54 17.44 18.5533 17.44 18.58C17.44 18.6333 17.3733 18.7933 17.24 19.06C17.04 19.46 16.8933 19.8867 16.8 20.34C16.7067 20.78 16.66 21.2333 16.66 21.7C16.66 22.5533 16.7933 23.3933 17.06 24.22C17.34 25.06 17.7067 25.78 18.16 26.38C18.5867 26.9533 19 27.3667 19.4 27.62C19.8133 27.8733 20.2 28 20.56 28C21.0933 28 21.5667 27.7933 21.98 27.38C22.4067 26.9667 22.76 26.46 23.04 25.86C23.24 25.4467 23.4067 24.9 23.54 24.22C23.6733 23.5533 23.7733 22.8067 23.84 21.98C23.92 21.14 23.96 20.2733 23.96 19.38C23.96 18.4733 23.92 17.58 23.84 16.7C23.76 15.82 23.6267 14.9933 23.44 14.22C23.2667 13.4467 23.0467 12.78 22.78 12.22C22.5133 11.66 22.1867 11.26 21.8 11.02C21.6933 10.9533 21.5933 10.92 21.5 10.92C21.3933 10.92 21.2867 10.9533 21.18 11.02C21.0867 11.0867 21 11.1733 20.92 11.28C20.7467 11.52 20.62 11.8533 20.54 12.28C20.46 12.6933 20.42 13.14 20.42 13.62C20.42 14.18 20.4667 14.7467 20.56 15.32C20.6533 15.88 20.78 16.38 20.94 16.82C21.1133 17.2467 21.3067 17.5467 21.52 17.72C21.64 17.8267 21.7533 17.88 21.86 17.88C21.9533 17.88 22.0267 17.86 22.08 17.82C22.1333 17.7667 22.1867 17.74 22.24 17.74C22.3333 17.74 22.3467 17.78 22.28 17.86C22.2133 17.9267 22.1133 17.9933 21.98 18.06C21.8467 18.1267 21.7 18.1533 21.54 18.14C21.18 18.1 20.88 17.9 20.64 17.54C20.4 17.18 20.22 16.7267 20.1 16.18C19.98 15.62 19.92 15.0467 19.92 14.46C19.92 13.8333 19.98 13.2333 20.1 12.66C20.2333 12.0867 20.4267 11.62 20.68 11.26C20.9467 10.9 21.2667 10.72 21.64 10.72C21.8267 10.72 22.0067 10.76 22.18 10.84C22.6867 11.0533 23.1 11.4667 23.42 12.08C23.7533 12.68 24.0067 13.4 24.18 14.24C24.3667 15.0667 24.4933 15.9333 24.56 16.84C24.64 17.7467 24.68 18.62 24.68 19.46C24.68 20.14 24.66 20.76 24.62 21.32C24.5933 21.88 24.56 22.3333 24.52 22.68C24.44 23.4133 24.28 24.1133 24.04 24.78C23.8 25.46 23.5 26.06 23.14 26.58C22.78 27.1133 22.3667 27.5333 21.9 27.84C21.4333 28.1467 20.94 28.3 20.42 28.3ZM25.7397 30.52C25.5397 30.52 25.3797 30.3867 25.2597 30.12C25.1397 29.8667 25.053 29.56 24.9997 29.2C24.933 28.84 24.8997 28.5067 24.8997 28.2C24.8997 28.0533 24.9064 27.84 24.9197 27.56C24.933 27.28 24.953 26.98 24.9797 26.66C25.0064 26.34 25.033 26.04 25.0597 25.76C25.0864 25.48 25.1064 25.2667 25.1197 25.12C25.2397 24.2133 25.4197 23.34 25.6597 22.5C25.8997 21.6467 26.1597 20.8133 26.4397 20C26.453 19.9733 26.4664 19.9333 26.4797 19.88C26.5064 19.8267 26.5264 19.8 26.5397 19.8V19.74C26.4064 19.7933 26.233 19.92 26.0197 20.12C25.8197 20.32 25.673 20.4733 25.5797 20.58C25.4864 20.6733 25.3997 20.7733 25.3197 20.88C25.2397 20.9733 25.1464 21.02 25.0397 21.02C24.933 21.02 24.8797 20.96 24.8797 20.84C24.8797 20.6933 24.9597 20.5467 25.1197 20.4C25.2664 20.24 25.433 20.0933 25.6197 19.96C25.8064 19.8133 26.0064 19.68 26.2197 19.56C26.4464 19.44 26.6064 19.3533 26.6997 19.3C26.7397 19.2733 26.7664 19.24 26.7797 19.2C26.8064 19.16 26.8264 19.12 26.8397 19.08C26.933 18.9333 27.0264 18.7933 27.1197 18.66C27.2264 18.5267 27.3664 18.4333 27.5397 18.38C27.6597 18.3933 27.793 18.42 27.9397 18.46C28.0864 18.5 28.173 18.5933 28.1997 18.74C28.1997 18.7933 28.213 18.82 28.2397 18.82V18.84C28.3064 18.84 28.3864 18.8333 28.4797 18.82C28.5864 18.7933 28.7064 18.78 28.8397 18.78C29.3597 18.78 29.7797 18.9133 30.0997 19.18C30.4197 19.4467 30.5797 19.8 30.5797 20.24C30.5797 20.6533 30.4597 21.1 30.2197 21.58C29.9797 22.0467 29.7197 22.4267 29.4397 22.72C28.9997 23.16 28.533 23.5467 28.0397 23.88C27.5597 24.2 27.1464 24.36 26.7997 24.36C26.5864 24.36 26.4397 24.3 26.3597 24.18C26.293 24.0733 26.2597 23.94 26.2597 23.78C26.2597 23.5533 26.3597 23.3267 26.5597 23.1C26.7597 22.8733 26.9597 22.68 27.1597 22.52C27.3864 22.3333 27.6197 22.16 27.8597 22C28.113 21.84 28.3264 21.7067 28.4997 21.6C28.593 21.5333 28.6797 21.4733 28.7597 21.42C28.853 21.3667 28.933 21.34 28.9997 21.34C29.0397 21.34 29.0597 21.36 29.0597 21.4C29.0597 21.4267 28.9797 21.4933 28.8197 21.6C28.673 21.7067 28.5464 21.8 28.4397 21.88C28.3597 21.9467 28.2197 22.0667 28.0197 22.24C27.8197 22.4 27.6064 22.5867 27.3797 22.8C27.1664 23 26.9797 23.2067 26.8197 23.42C26.6597 23.6333 26.5797 23.82 26.5797 23.98C26.793 23.98 27.0264 23.8933 27.2797 23.72C27.5464 23.5333 27.8064 23.32 28.0597 23.08C28.3264 22.84 28.553 22.64 28.7397 22.48C28.913 22.32 29.1197 22.1 29.3597 21.82C29.5997 21.54 29.813 21.24 29.9997 20.92C30.1864 20.6 30.2797 20.3067 30.2797 20.04C30.2797 19.6933 30.1464 19.44 29.8797 19.28C29.6264 19.1067 29.3197 19.02 28.9597 19.02C28.8397 19.02 28.6864 19.0333 28.4997 19.06C28.313 19.0867 28.1997 19.1133 28.1597 19.14C27.8664 19.5933 27.5864 20.0533 27.3197 20.52C27.053 20.9867 26.8064 21.4667 26.5797 21.96C26.2064 22.76 25.9064 23.5733 25.6797 24.4C25.4664 25.2267 25.3264 26.12 25.2597 27.08C25.2464 27.3067 25.2264 27.5467 25.1997 27.8C25.1864 28.0533 25.1864 28.3067 25.1997 28.56C25.213 28.6933 25.2397 28.9067 25.2797 29.2C25.3197 29.4933 25.3864 29.76 25.4797 30C25.573 30.24 25.6997 30.36 25.8597 30.36C25.873 30.36 25.8997 30.36 25.9397 30.36C25.9797 30.36 25.9997 30.3667 25.9997 30.38V30.44C25.9064 30.4933 25.8197 30.52 25.7397 30.52Z" fill="url(#paint1_linear_6_2)"/>
<defs>
<linearGradient id="paint0_linear_6_2" x1="95.5" y1="8" x2="97.7241" y2="30.3785" gradientUnits="userSpaceOnUse">
<stop stop-color="#00D4F6"/>
<stop offset="1"/>
</linearGradient>
<linearGradient id="paint1_linear_6_2" x1="23.5" y1="7" x2="23.5" y2="32" gradientUnits="userSpaceOnUse">
<stop stop-color="#0E4E8F"/>
<stop offset="1" stop-color="#3C3F43"/>
</linearGradient>
</defs>
</svg>
